<svg viewBox="0 0 8.467 8.467" xmlns="http://www.w3.org/2000/svg">
    <path d="M.864 0C.455 0 0 .455 0 .864v6.739c0 .408.455.864.864.864h6.739c.408 0 .864-.456.864-.864V.863C8.467.456 8.01 0 7.603 0Z"
          fill="#ccc"/>
    <g transform="translate(-8.957 -20.043)scale(.09484)">
        <path fill="none" stroke="#000" stroke-width="2.698" d="M101.414 235.734h27.173v42.939h-27.173z"/>
        <path d="m129.253 251.253 23.795-4.72 23.795 4.72v27.516h-47.59Z" fill="none" stroke="#000"
              stroke-width="2.505"/>
        <path d="m153.046 239.356-7.59 1.506v7.173l7.59-1.506 7.59 1.505v-7.172z" fill="none" stroke="#000"
              stroke-width="2.505" stroke-linejoin="bevel"/>
        <g transform="matrix(.88547 0 0 .72246 -10.497 70.952)">
            <g transform="translate(-8.467 -2.332)" stroke-width=".003">
                <path d="M198.154 229.441a3 3 0 0 0-.336.01 4 4 0 0 0-.609.112q-.16.041-.293.069h-.002q-.09.02-.172.032h-.004l-.02.003-.021.003q-.073.01-.143.017h-.002l-.05.004h-.005a2 2 0 0 1-.313.002h-.004l-.033-.003h-.004l-.095-.011h-.005l-.055-.01h-.002l-.091-.017h-.002l-.069-.016-.016-.003-.002-.001-.148-.038a3 3 0 0 0-.598-.113 14 14 0 0 0-1.135.004c-.246.014-.68.047-.727.054l-.03.005v.132l-.004 2.967.03-.005c.048-.007.482-.04.727-.054a14 14 0 0 1 1.135-.004c.235.025.372.05.599.113.287.079.446.103.67.103.261 0 .503-.037.88-.133a4 4 0 0 1 .609-.113 5 5 0 0 1 .668.004c.212.029.386.074.566.146.268.107.537.176.857.22a4.7 4.7 0 0 0 1.354-.021 121 121 0 0 0-.046-2.177 56 56 0 0 1-.016-.911l-.18.023a4 4 0 0 1-.268.021 5 5 0 0 1-.84-.035q-.111-.015-.215-.035l-.1-.02-.107-.025-.106-.029-.087-.025a3 3 0 0 1-.159-.053v-.002l-.084-.03a2.3 2.3 0 0 0-.566-.146 3 3 0 0 0-.332-.014z"
                      fill="#d4213d"/>
                <path d="M193.275 226.31q-.004.012-.012.027-.004.01-.01.019l.01-.02q.008-.014.012-.026m4.329.119a3 3 0 0 0-.723.103c-.514.138-.96.163-1.26.068-.173-.053-.418-.086-.795-.105a17 17 0 0 0-1.544.03l-.11.009-.004 2.706v.304l.03-.006c.048-.006.482-.039.727-.053a14 14 0 0 1 1.135-.004c.235.025.371.05.598.113q.091.025.166.042l.07.015a2 2 0 0 0 .15.027q.05.007.1.011l.036.004a2.4 2.4 0 0 0 .323-.002l.049-.004q.07-.006.145-.017l.041-.005a5 5 0 0 0 .471-.101 4 4 0 0 1 .609-.113 5 5 0 0 1 .668.004c.212.029.386.074.565.146l.14.05.103.035.088.025.105.029q.053.013.108.024l.1.021q.103.02.214.035.132.018.274.028c.188.014.381.016.566.007a4 4 0 0 0 .448-.046l-.003-.176-.006-.755c0-.484.01-1.062.034-1.991.005-.16.004-.191-.007-.191-.005 0-.045.002-.088.007-.63.058-1.4.087-1.621.06a10 10 0 0 1-.49-.1c-.913-.202-.955-.21-1.17-.226q-.123-.01-.243-.008zm-4.476.044q-.002.002-.001.003z"
                      fill="#fff"/>
            </g>
            <path d="M184.318 222.811c-.313.058-.473.256-.338.42a.6.6 0 0 0 .228.142c.053.012.057.023.008.018l-.036-.003v9.824h.615v-3.058l.016-6.699q-.021 0-.018-.03c.004-.029.004-.03-.035-.029-.053.002-.05-.008.008-.021a.53.53 0 0 0 .225-.135c.038-.045.043-.056.043-.135s-.004-.088-.046-.134a.64.64 0 0 0-.278-.148 1 1 0 0 0-.394-.01z"/>
        </g>
        <path d="m128.857 252.99 48.924-.28m-42.989.033-.033 25.268m9.17-25.268-.034 25.268m9.17-25.268-.033 25.268m9.169-25.268-.033 25.268m9.17-25.268-.033 25.268"
              fill="none" stroke="#000" stroke-width="2.5"/>
        <path d="M111.494 243.814h7.011v9.591h-7.011z"/>
    </g>
    <path d="M3.155 5.965v1.59h2.848L6 5.965zm.299-.613-.26.495H5.96l-.257-.495h-.521v.184h.13a.059.059 0 1 1 0 .118H3.864a.059.059 0 1 1 0-.118h.1v-.184zm1.054-.162h.407a.059.059 0 1 1 0 .119h-.407a.059.059 0 1 1 0-.118m-.277-.277h.684a.059.059 0 1 1 0 .118h-.684a.059.059 0 1 1 0-.118"
          fill="#6f6f6f"/>
    <path d="M4.081 4.72v.816h.984V4.72Z" fill="#fff"/>
    <path d="M4.508 5.308a.059.059 0 1 1 0-.118h.407a.059.059 0 1 1 0 .118zm.675-.074h.557a.06.06 0 0 1 .054.035l.315.61a.1.1 0 0 1 .007.03l.005 1.704a.06.06 0 0 1-.059.06H3.096a.06.06 0 0 1-.059-.06V5.897l.001-.001v-.004l.001-.001V5.89l.001-.001v-.002l.001-.001v-.001h.001v-.001l.001-.002V5.88h.001v-.002h.001v-.002h.001v-.001h.001l.32-.61a.06.06 0 0 1 .053-.032h.544v-.558q.002-.031.021-.052a.07.07 0 0 1 .052-.021h1.074q.03 0 .051.021a.07.07 0 0 1 .022.052zm-1.22.118h-.509l-.26.495H5.96l-.257-.495h-.521v.184h.13a.059.059 0 1 1 0 .118H3.864a.059.059 0 1 1 0-.118h.1zm-.808.613v1.59h2.848L6 5.965Zm1.91-1.245h-.984v.816h.984Zm-.834.312a.059.059 0 1 1 0-.118h.684a.059.059 0 1 1 0 .118z"
          stroke="#000" stroke-width=".025" stroke-linejoin="round"/>
</svg>