<?xml version="1.0" encoding="UTF-8" standalone="no"?>
<svg
        xmlns:inkscape="http://www.inkscape.org/namespaces/inkscape"
        xmlns:sodipodi="http://sodipodi.sourceforge.net/DTD/sodipodi-0.dtd"
        width="100%"
        height="100%"
        viewBox="0 0 337 340"
        version="1.1"
        xml:space="preserve"
        style="fill-rule:evenodd;clip-rule:evenodd;stroke-linejoin:round;stroke-miterlimit:2;"
        id="svg54"
        sodipodi:docname="BS_logo.svg"
        inkscape:version="1.1.1 (3bf5ae0d25, 2021-09-20)"
        xmlns="http://www.w3.org/2000/svg"><defs
   id="defs58" />
    <sodipodi:namedview
            id="namedview56"
            pagecolor="#505050"
            bordercolor="#ffffff"
            borderopacity="1"
            inkscape:pageshadow="0"
            inkscape:pageopacity="0"
            inkscape:pagecheckerboard="1"
            showgrid="false"
            inkscape:zoom="2.5676471"
            inkscape:cx="168.63688"
            inkscape:cy="170"
            inkscape:window-width="2560"
            inkscape:window-height="1377"
            inkscape:window-x="1912"
            inkscape:window-y="-8"
            inkscape:window-maximized="1"
            inkscape:current-layer="layer1"/>


    <g
            inkscape:groupmode="layer"
            id="BS"
            inkscape:label="BS"><g
     transform="matrix(1.89456,0,0,1.89456,-171.796,-165.442)"
     id="g52">
        <path
                d="m 96.263,247.565 h 4.381 v 2.936 h -4.381 z m 0.323,7.253 h -1.489 l 0.346,-2.957 h 5.201 v 10.23 h -4.058 z m 17.344,7.489 c -0.849,0 -1.662,-0.061 -2.439,-0.183 -0.777,-0.123 -1.396,-0.277 -1.856,-0.464 v -2.914 c 0.475,0.23 1.057,0.41 1.748,0.54 0.69,0.129 1.302,0.194 1.835,0.194 0.632,0 1.053,-0.018 1.262,-0.054 0.209,-0.036 0.313,-0.155 0.313,-0.356 0,-0.173 -0.111,-0.31 -0.334,-0.411 -0.224,-0.1 -0.587,-0.222 -1.09,-0.366 l -1.08,-0.346 c -0.993,-0.359 -1.705,-0.762 -2.136,-1.208 -0.432,-0.447 -0.648,-1.08 -0.648,-1.9 0,-2.129 1.669,-3.194 5.007,-3.194 0.634,0 1.303,0.05 2.008,0.151 0.705,0.101 1.273,0.216 1.705,0.345 v 2.849 c -0.417,-0.172 -0.881,-0.305 -1.392,-0.399 -0.511,-0.093 -0.982,-0.14 -1.414,-0.14 -0.59,0 -1.032,0.025 -1.327,0.075 -0.295,0.051 -0.443,0.169 -0.443,0.357 0,0.158 0.097,0.28 0.292,0.366 0.194,0.087 0.536,0.194 1.025,0.324 l 0.95,0.281 c 0.777,0.23 1.385,0.482 1.823,0.755 0.439,0.273 0.748,0.601 0.928,0.982 0.18,0.382 0.27,0.867 0.27,1.457 0,1.051 -0.424,1.856 -1.273,2.417 -0.849,0.562 -2.094,0.842 -3.734,0.842 z m 9.724,0 c -1.05,0 -1.917,-0.277 -2.601,-0.831 -0.683,-0.554 -1.025,-1.37 -1.025,-2.45 0,-1.093 0.363,-1.935 1.09,-2.525 0.727,-0.59 1.81,-0.885 3.248,-0.885 h 2.655 v -0.194 c 0,-0.403 -0.169,-0.698 -0.507,-0.885 -0.338,-0.187 -0.917,-0.281 -1.737,-0.281 -1.18,0 -2.346,0.18 -3.497,0.54 v -2.439 c 0.532,-0.216 1.187,-0.389 1.964,-0.518 0.777,-0.129 1.561,-0.194 2.353,-0.194 1.669,0 2.968,0.342 3.896,1.025 0.928,0.684 1.392,1.723 1.392,3.119 v 6.302 h -3.54 l -0.194,-0.82 c -0.777,0.691 -1.943,1.036 -3.497,1.036 z m 1.381,-2.374 c 0.821,0 1.483,-0.274 1.986,-0.82 v -1.274 h -1.964 c -0.46,0 -0.799,0.087 -1.014,0.259 -0.216,0.173 -0.324,0.439 -0.324,0.799 0,0.691 0.439,1.036 1.316,1.036 z m 7.696,-8.072 h 3.756 l 0.108,0.82 c 1.007,-0.691 2.115,-1.036 3.324,-1.036 0.633,0 1.144,0.09 1.532,0.27 0.389,0.18 0.698,0.457 0.928,0.831 1.05,-0.734 2.259,-1.101 3.626,-1.101 1.195,0 2.072,0.313 2.633,0.939 0.562,0.626 0.842,1.579 0.842,2.859 v 6.648 h -3.993 v -6.173 c 0,-0.46 -0.093,-0.787 -0.281,-0.982 -0.186,-0.194 -0.496,-0.291 -0.928,-0.291 -0.258,0 -0.51,0.054 -0.755,0.162 -0.245,0.108 -0.453,0.255 -0.626,0.442 0.029,0.245 0.043,0.605 0.043,1.079 v 5.763 h -3.755 v -6.237 c 0,-0.432 -0.076,-0.741 -0.227,-0.928 -0.151,-0.187 -0.421,-0.281 -0.809,-0.281 -0.504,0 -1,0.245 -1.49,0.734 v 6.712 h -3.928 z m 24.143,10.446 c -3.986,0 -5.979,-1.777 -5.979,-5.331 0,-1.741 0.496,-3.065 1.489,-3.971 0.993,-0.907 2.489,-1.36 4.49,-1.36 2.014,0 3.521,0.453 4.521,1.36 1.001,0.906 1.501,2.23 1.501,3.971 0,3.554 -2.008,5.331 -6.022,5.331 z m 0,-2.957 c 0.662,0 1.14,-0.187 1.435,-0.561 0.295,-0.374 0.442,-0.978 0.442,-1.813 0,-0.82 -0.147,-1.421 -0.442,-1.802 -0.295,-0.382 -0.773,-0.572 -1.435,-0.572 -0.648,0 -1.116,0.19 -1.403,0.572 -0.288,0.381 -0.432,0.982 -0.432,1.802 0,0.835 0.144,1.439 0.432,1.813 0.287,0.374 0.755,0.561 1.403,0.561 z m 7.544,-7.489 h 3.907 l 0.108,0.82 c 0.446,-0.259 0.989,-0.486 1.629,-0.68 0.64,-0.194 1.284,-0.313 1.932,-0.356 v 3.022 c -0.604,0.043 -1.245,0.136 -1.921,0.28 -0.676,0.144 -1.209,0.309 -1.597,0.496 v 6.648 h -4.058 z m 8.451,8.007 4.295,-4.899 h -4.144 v -3.108 h 9.303 v 2.288 l -4.166,4.834 h 4.317 v 3.108 h -9.605 z m 20.71,2.223 c -0.834,0.633 -1.251,1.274 -1.251,1.921 0,0.576 0.309,0.863 0.928,0.863 0.187,0 0.381,-0.021 0.583,-0.064 0.201,-0.043 0.367,-0.101 0.496,-0.173 v 1.856 c -0.23,0.087 -0.55,0.166 -0.961,0.238 -0.41,0.072 -0.823,0.108 -1.241,0.108 -0.863,0 -1.553,-0.177 -2.072,-0.529 -0.518,-0.353 -0.777,-0.874 -0.777,-1.565 0,-0.532 0.144,-1.029 0.432,-1.489 0.288,-0.461 0.676,-0.849 1.166,-1.166 l -0.195,-0.82 c -0.777,0.691 -1.942,1.036 -3.496,1.036 -1.051,0 -1.918,-0.277 -2.601,-0.831 -0.684,-0.554 -1.025,-1.37 -1.025,-2.45 0,-1.093 0.363,-1.935 1.09,-2.525 0.726,-0.59 1.809,-0.885 3.248,-0.885 h 2.655 v -0.194 c 0,-0.403 -0.169,-0.698 -0.507,-0.885 -0.339,-0.187 -0.918,-0.281 -1.738,-0.281 -1.18,0 -2.345,0.18 -3.496,0.54 v -2.439 c 0.532,-0.216 1.187,-0.389 1.964,-0.518 0.777,-0.129 1.561,-0.194 2.352,-0.194 1.67,0 2.968,0.342 3.896,1.025 0.928,0.684 1.392,1.723 1.392,3.119 v 6.302 z m -3.021,-4.252 h -1.964 c -0.461,0 -0.799,0.087 -1.015,0.259 -0.215,0.173 -0.323,0.439 -0.323,0.799 0,0.691 0.438,1.036 1.316,1.036 0.82,0 1.482,-0.274 1.986,-0.82 z m 10.48,4.468 c -1.525,0 -2.702,-0.396 -3.529,-1.187 -0.827,-0.791 -1.241,-2.065 -1.241,-3.82 0,-1.209 0.22,-2.238 0.658,-3.087 0.439,-0.849 1.029,-1.489 1.77,-1.921 0.741,-0.431 1.565,-0.647 2.472,-0.647 0.474,0 0.945,0.05 1.413,0.151 0.468,0.101 0.874,0.244 1.22,0.432 v -4.684 h 4.057 v 14.547 h -3.518 l -0.194,-0.798 c -0.432,0.331 -0.896,0.583 -1.392,0.755 -0.497,0.173 -1.069,0.259 -1.716,0.259 z m 1.166,-2.935 c 0.618,0 1.151,-0.209 1.597,-0.626 v -3.626 c -0.403,-0.36 -0.936,-0.54 -1.597,-0.54 -0.547,0 -0.983,0.241 -1.306,0.723 -0.324,0.482 -0.486,1.155 -0.486,2.018 0,0.561 0.061,0.989 0.183,1.285 0.123,0.295 0.31,0.496 0.562,0.604 0.251,0.108 0.6,0.162 1.047,0.162 z m 13.372,2.935 c -3.986,0 -5.979,-1.777 -5.979,-5.331 0,-1.741 0.497,-3.065 1.489,-3.971 0.993,-0.907 2.49,-1.36 4.49,-1.36 2.014,0 3.521,0.453 4.522,1.36 1,0.906 1.5,2.23 1.5,3.971 0,3.554 -2.008,5.331 -6.022,5.331 z m 0,-2.957 c 0.662,0 1.14,-0.187 1.435,-0.561 0.295,-0.374 0.442,-0.978 0.442,-1.813 0,-0.82 -0.147,-1.421 -0.442,-1.802 -0.295,-0.382 -0.773,-0.572 -1.435,-0.572 -0.648,0 -1.115,0.19 -1.403,0.572 -0.288,0.381 -0.432,0.982 -0.432,1.802 0,0.835 0.144,1.439 0.432,1.813 0.288,0.374 0.755,0.561 1.403,0.561 z m 6.249,-7.489 h 3.928 l 1.209,5.072 1.187,-3.605 v -1.467 h 2.979 l 1.424,5.072 1.166,-5.072 h 3.928 l -2.698,10.23 h -3.626 l -1.554,-4.64 -1.554,4.64 h -3.691 z m 21.639,10.446 c -1.9,0 -3.378,-0.45 -4.436,-1.349 -1.057,-0.899 -1.586,-2.227 -1.586,-3.982 0,-1.756 0.539,-3.083 1.618,-3.982 1.08,-0.899 2.554,-1.349 4.425,-1.349 0.777,0 1.464,0.054 2.061,0.162 0.597,0.108 1.169,0.291 1.716,0.55 v 2.849 c -0.849,-0.403 -1.813,-0.604 -2.892,-0.604 -0.95,0 -1.651,0.18 -2.104,0.539 -0.454,0.36 -0.68,0.972 -0.68,1.835 0,0.835 0.223,1.439 0.669,1.813 0.446,0.374 1.151,0.561 2.115,0.561 1.022,0 1.993,-0.237 2.914,-0.712 v 2.978 c -1.022,0.461 -2.295,0.691 -3.82,0.691 z m 8.559,3.583 c -0.576,0 -1.062,-0.029 -1.457,-0.086 -0.396,-0.058 -0.788,-0.166 -1.176,-0.324 v -2.763 c 0.374,0.144 0.813,0.216 1.316,0.216 0.561,0 0.979,-0.072 1.252,-0.216 0.273,-0.144 0.547,-0.432 0.82,-0.863 l -4.619,-9.993 h 4.252 l 2.396,6.021 2.331,-6.021 h 4.23 l -3.777,9.259 c -0.633,1.569 -1.385,2.755 -2.255,3.561 -0.871,0.806 -1.975,1.209 -3.313,1.209 z"
                style="fill:#ed1c24;fill-rule:nonzero"
                id="path50"/>
    </g>
        <g
                transform="matrix(1.89456,0,0,1.89456,-171.796,-165.442)"
                id="g48">
        <path
                d="m 230.797,87.271 h 32.476 l -3.683,71.383 h -25.11 z m 3.698,79.297 h 25.08 v 20.639 h -25.08 z"
                style="fill:#ed1c24;fill-rule:nonzero"
                id="path46"/>
    </g>
        <g
                transform="matrix(1.89456,0,0,1.89456,-171.796,-165.442)"
                id="g44">
        <rect
                x="246.649"
                y="196.509"
                width="13.229"
                height="45.317001"
                style="fill:#231f20;fill-rule:nonzero"
                id="rect42"/>
    </g>
        <g
                transform="matrix(1.89456,0,0,1.89456,-171.796,-165.442)"
                id="g40">
        <path
                d="m 117.125,123.37 c 1.783,0 3.096,-0.375 3.94,-1.125 0.844,-0.752 1.267,-1.994 1.267,-3.73 0,-1.501 -0.434,-2.615 -1.302,-3.343 -0.868,-0.727 -2.263,-1.09 -4.187,-1.09 h -8.866 v 9.288 z m -0.563,-18.014 c 3.237,0 4.855,-1.454 4.855,-4.363 0,-1.501 -0.41,-2.615 -1.231,-3.342 -0.822,-0.727 -2.146,-1.091 -3.976,-1.091 h -8.233 v 8.796 z M 95.24,87.272 h 24.91 c 4.551,0 8.034,1.078 10.45,3.237 2.416,2.157 3.625,5.254 3.625,9.288 0,2.252 -0.423,4.199 -1.267,5.841 -0.845,1.641 -1.994,2.931 -3.449,3.87 2.111,0.844 3.695,1.994 4.75,3.448 1.056,1.455 1.584,3.518 1.584,6.192 0,4.27 -1.314,7.576 -3.941,9.922 -2.627,2.346 -6.356,3.519 -11.189,3.519 H 95.24 Z"
                style="fill:#231f20;fill-rule:nonzero"
                id="path38"/>
    </g>
        <g
                transform="matrix(1.89456,0,0,1.89456,-171.796,-165.442)"
                id="g36">
        <path
                d="m 143.082,87.272 h 34.339 v 10.132 h -21.11 v 7.389 h 18.507 v 10.274 h -18.507 v 7.388 h 21.11 v 10.134 h -34.339 z"
                style="fill:#231f20;fill-rule:nonzero"
                id="path34"/>
    </g>
        <g
                transform="matrix(1.89456,0,0,1.89456,-171.796,-165.442)"
                id="g32">
        <path
                d="m 184.661,125.974 19.703,-28.57 H 185.716 V 87.272 h 36.028 v 6.896 l -19.491,28.287 h 19.914 v 10.134 h -37.506 z"
                style="fill:#231f20;fill-rule:nonzero"
                id="path30"/>
    </g>
        <g
                transform="matrix(1.89456,0,0,1.89456,-171.796,-165.442)"
                id="g28">
        <path
                d="m 116.531,164.9 c 1.971,0 3.484,-0.574 4.539,-1.724 1.055,-1.149 1.583,-2.685 1.583,-4.609 0,-2.064 -0.48,-3.67 -1.442,-4.82 -0.962,-1.149 -2.405,-1.724 -4.328,-1.724 h -7.177 V 164.9 Z M 96.477,141.89 h 23.361 c 5.348,0 9.407,1.548 12.174,4.644 2.768,3.097 4.152,7.107 4.152,12.033 0,3.19 -0.68,6.029 -2.041,8.515 -1.36,2.486 -3.295,4.433 -5.805,5.84 -2.51,1.408 -5.43,2.111 -8.761,2.111 h -9.851 v 12.174 H 96.477 Z"
                style="fill:#231f20;fill-rule:nonzero"
                id="path26"/>
    </g>
        <g
                transform="matrix(1.89456,0,0,1.89456,-171.796,-165.442)"
                id="g24">
        <path
                d="m 163.678,168.067 -5.067,-13.3 -5.066,13.3 z M 151.645,141.89 h 14.002 l 17.382,45.317 h -13.793 l -3.799,-9.641 h -13.652 l -3.729,9.641 h -13.792 z"
                style="fill:#231f20;fill-rule:nonzero"
                id="path22"/>
    </g>
        <g
                transform="matrix(1.89456,0,0,1.89456,-171.796,-165.442)"
                id="g20">
        <path
                d="m 207.821,163.845 c 1.924,0 3.413,-0.505 4.469,-1.513 1.056,-1.009 1.583,-2.451 1.583,-4.328 0,-3.987 -1.876,-5.981 -5.63,-5.981 h -7.388 v 11.822 z M 187.626,141.89 h 23.573 c 5.348,0 9.382,1.454 12.103,4.363 2.722,2.908 4.082,6.825 4.082,11.751 0,3.003 -0.751,5.665 -2.252,7.987 -1.501,2.322 -3.542,4.117 -6.122,5.383 0.516,0.422 0.962,0.915 1.337,1.478 0.376,0.563 0.798,1.384 1.267,2.463 l 5.207,11.892 H 213.029 L 208.243,176.3 c -0.374,-0.845 -0.832,-1.443 -1.371,-1.794 -0.54,-0.352 -1.302,-0.529 -2.288,-0.529 h -3.729 v 13.23 h -13.229 z"
                style="fill:#231f20;fill-rule:nonzero"
                id="path18"/>
    </g>
        <g
                transform="matrix(1.89456,0,0,1.89456,-171.796,-165.442)"
                id="g16">
        <path
                d="m 102.347,206.36 h -11.29 v -9.851 h 35.81 v 9.851 h -11.29 v 35.466 h -13.23 z"
                style="fill:#231f20;fill-rule:nonzero"
                id="path14"/>
    </g>
        <g
                transform="matrix(1.89456,0,0,1.89456,-171.796,-165.442)"
                id="g12">
        <path
                d="m 142.701,225.219 -15.169,-28.71 h 13.792 l 7.992,17.099 7.99,-17.099 h 13.793 l -15.169,28.71 v 16.607 h -13.229 z"
                style="fill:#231f20;fill-rule:nonzero"
                id="path10"/>
    </g>
        <g
                transform="matrix(1.89456,0,0,1.89456,-171.796,-165.442)"
                id="g8">
        <path
                d="m 175.734,242.529 c -4.081,0 -7.67,-0.539 -10.766,-1.618 v -10.977 c 2.299,0.938 4.972,1.407 8.022,1.407 2.533,0 4.34,-0.516 5.418,-1.549 1.079,-1.031 1.619,-2.743 1.619,-5.136 v -28.147 h 13.228 v 30.258 c 0,4.973 -1.512,8.843 -4.538,11.611 -3.026,2.767 -7.353,4.151 -12.983,4.151 z"
                style="fill:#231f20;fill-rule:nonzero"
                id="path6"/>
    </g>
        <g
                transform="matrix(1.89456,0,0,1.89456,-171.796,-165.442)"
                id="g4">
        <path
                d="m 199.233,196.509 h 11.258 l 17.101,23.995 v -23.995 h 13.229 v 45.317 h -11.33 L 212.462,217.9 v 23.926 h -13.229 z"
                style="fill:#231f20;fill-rule:nonzero"
                id="path2"/>
    </g></g></svg>
