<?xml version="1.0" encoding="UTF-8" standalone="no"?>
<svg
        xmlns:inkscape="http://www.inkscape.org/namespaces/inkscape"
        xmlns:sodipodi="http://sodipodi.sourceforge.net/DTD/sodipodi-0.dtd"
        width="381.38599"
        height="335"
        viewBox="0 0 381.38599 335"
        fill="none"
        version="1.1"
        id="svg6"
        sodipodi:docname="KO_logo.svg"
        inkscape:version="1.1.1 (3bf5ae0d25, 2021-09-20)"
        xmlns="http://www.w3.org/2000/svg">
    <defs
            id="defs10"/>
    <sodipodi:namedview
            id="namedview8"
            pagecolor="#505050"
            bordercolor="#ffffff"
            borderopacity="1"
            inkscape:pageshadow="0"
            inkscape:pageopacity="0"
            inkscape:pagecheckerboard="1"
            showgrid="false"
            inkscape:zoom="1.2693981"
            inkscape:cx="521.50701"
            inkscape:cy="124.07455"
            inkscape:window-width="2560"
            inkscape:window-height="1377"
            inkscape:window-x="1912"
            inkscape:window-y="-8"
            inkscape:window-maximized="1"
            inkscape:current-layer="layer1"/>
    <g
            inkscape:groupmode="layer"
            id="KO"
            inkscape:label="KO">
        <path
                d="m 203.087,331.031 c -7.434,5.292 -17.373,5.292 -24.797,0 C 122.004,290.955 0,206.692 0,102.251 0,45.781 45.7802,0 102.23,0 c 34.976,0 65.794,17.6037 84.214,44.4077 2.045,2.9771 6.444,2.9771 8.499,0 C 213.362,17.6037 244.161,0 279.156,0 c 56.46,0 102.23,45.781 102.23,102.251 -0.028,104.441 -122.023,188.704 -178.299,228.78 z"
                fill="#d31c3f"
                id="path2"/>
        <path
                d="m 197.828,266.13 c -4.321,3.073 -10.093,3.073 -14.395,0 C 152.365,244.012 86.8208,198.702 80.4057,142.194 76.4394,107.265 102.014,75.1691 137.144,73.9398 c 20.09,-0.7011 38.01,8.6049 49.256,23.3083 2.161,2.8239 6.329,2.8139 8.49,-0.0096 10.833,-14.1752 27.888,-23.3371 47.115,-23.3371 32.786,0 59.369,26.5836 59.369,59.3796 -0.019,60.648 -70.855,109.579 -103.546,132.858 z"
                fill="#ffffff"
                id="path4"/>
    </g>
</svg>
