<svg version="1.1" id="Konfederacja" width="50" height="40" xmlns="http://www.w3.org/2000/svg">
    <defs id="defs9">
        <linearGradient id="z" x1="57.57" y1="20.68" x2="109.2" y2="20.68" gradientUnits="userSpaceOnUse">
            <stop offset="0" stop-color="#173358" id="stop4"/>
            <stop offset="1" stop-color="#0d1e37" id="stop6"/>
        </linearGradient>
        <style id="style2">.e{fill:#fff;fill-rule:evenodd}</style>
    </defs>
    <g id="layer1">
        <g id="b">
            <g id="g96" transform="matrix(.96805 0 0 .96688 -55.712 0)">
                <path d="M104.4 25.41c2.17-.87 4.8-1.13 4.8-1.13s-2.01-3.61-5.97-4.81l-.32-1.7-2.93-14.02H78.49L78.03 0 64.26 4.27l-3.69-2.21 1.05 3.22-.93.36-.71 2.66h-2.43l2.16 2.47.93 2.99-3.08 1.76 3.49 1.6 1.41 12.71 19.06 11.13 19.17.41"
                      id="path82" style="fill:url(#z)"/>
                <g id="g94">
                    <g id="g90">
                        <path class="e"
                              d="M67.17 7.04c4.85 7.71 13.61 9.31 13.61 9.31s-4-3.14-5.99-4.75c-2.09-1.69-7.62-4.55-7.62-4.55Z"
                              id="path84"/>
                        <path class="e"
                              d="M90.74 20.4c-1.41.16-2.03.86-1.98 1.22.06.51 1.31.78 2.78.59.92-.11 1.7-.38 2.1-.7l-2.9-1.12z"
                              id="path86"/>
                        <path class="e"
                              d="M89.48 31.92s9.83-8.36 16.92-8.72c0 0-2.52-2.53-8.16-3.32.55-2.34-1.24-3.27-3.34-3.13-2.59.17-9 2.21-9 2.21-.71.2-1.52.31-2.23.17-5.19-1.06-9.43-2.32-12.96-5-3.34-2.53-3.65-2.98-10.12-12.07 0 0-.89 3.28 2.08 8.63-3.76-.45-5.1-2.39-5.1-2.39 1.63 5.84 5.92 7.42 5.92 7.42-3.32.38-5.92-.22-5.92-.22 1.86 4.43 8.95 4.72 8.95 4.72-1.57 1.86-3.51 2.31-3.51 2.31 2.26 2 6.84 1.65 6.84 1.65-.4 2.43-2.66 3.43-2.66 3.43 2.08.59 6.16-.52 6.16-.52-1.64 2.74-1.6 2.46-2.83 4.04 0 0 5.01-3.91 7.09-5.44 3.99-2.93 8.04-5.01 13.16-6.49 1.35-.39 2.87-.6 4.28-.43.99.12 1.29.91.69 1.76-.25.36-.66.7-.95.95 3.09-.56 5.41-.11 7.65 1.05-5.67 1.41-10.31 4.52-12.95 9.39z"
                              id="path88"/>
                    </g>
                    <path d="M85 17.11s5.15-2.14 10.58-2.24l-1.5-5.74c-1.22 2.07-2.39 3.27-2.39 3.27s-1.69-1.28-2.38-2.13c-.13 1-1.36 3.04-1.36 3.04s-1.81-.5-4.11-2.23l1.17 6.03z"
                          id="path92" style="fill:#ffca05;fill-rule:evenodd"/>
                </g>
            </g>
        </g>
    </g>
</svg>