<?xml version="1.0" encoding="UTF-8" standalone="no"?>
<svg
        xmlns:inkscape="http://www.inkscape.org/namespaces/inkscape"
        xmlns:sodipodi="http://sodipodi.sourceforge.net/DTD/sodipodi-0.dtd"
        version="1.0"
        width="150pt"
        height="150pt"
        viewBox="0 0 150 150"
        preserveAspectRatio="xMidYMid meet"
        id="svg56"
        sodipodi:docname="TD_logo.svg"
        inkscape:version="1.1.1 (3bf5ae0d25, 2021-09-20)"
        xmlns="http://www.w3.org/2000/svg">
    <defs
            id="defs60"/>
    <sodipodi:namedview
            id="namedview58"
            pagecolor="#505050"
            bordercolor="#ffffff"
            borderopacity="1"
            inkscape:pageshadow="0"
            inkscape:pageopacity="0"
            inkscape:pagecheckerboard="1"
            inkscape:document-units="pt"
            showgrid="false"
            inkscape:zoom="1.5432606"
            inkscape:cx="44.710532"
            inkscape:cy="153.89495"
            inkscape:window-width="2560"
            inkscape:window-height="1377"
            inkscape:window-x="1912"
            inkscape:window-y="-8"
            inkscape:window-maximized="1"
            inkscape:current-layer="layer1"/>
    <g
            inkscape:groupmode="layer"
            id="TD"
            inkscape:label="TD">
        <path
                id="path3815"
                style="display:inline;fill:#32d250;fill-opacity:1;stroke:none;stroke-width:3.18604;stroke-linejoin:round;stop-color:#000000"
                d="m 60.132007,0.01294464 c -0.375087,0.02162146 -0.754316,0.06995579 -1.137421,0.14545471 -0.383095,0.075495 -0.769883,0.17947176 -1.157392,0.31087397 -0.387518,0.13140126 -0.776215,0.2912297 -1.164533,0.48057083 -0.388318,0.18934115 -0.776157,0.40808495 -1.161678,0.65739955 -0.257944,0.1667987 -0.505618,0.3716818 -0.744972,0.6160432 -0.239345,0.2443605 -0.470573,0.5273057 -0.692148,0.8513376 -0.221574,0.3240327 -0.43475,0.6893742 -0.639353,1.0951888 -0.204622,0.4058156 -0.400944,0.8521825 -0.589403,1.3418926 -0.188469,0.489709 -0.369193,1.0214344 -0.542317,1.5971503 -0.173115,0.575715 -0.338037,1.1957058 -0.496636,1.8595392 -0.317197,1.3276666 -0.606578,2.8334036 -0.870542,4.5262106 -0.469657,3.011768 -1.146802,6.95445 -1.505629,8.761512 -0.358817,1.807062 -1.18319,6.242577 -1.831,9.856703 -0.647818,3.614123 -1.350888,7.474659 -1.5627,8.578979 l -0.385336,2.007846 -19.487421,0.0029 c -4.501913,7.31e-4 -7.982165,0.0087 -10.703447,0.03991 -2.721299,0.03096 -4.683853,0.08557 -6.150921,0.181111 -0.7335339,0.04779 -1.3437275,0.10505 -1.8623999,0.175395 -0.5186723,0.07038 -0.9461937,0.153755 -1.3158151,0.250978 -0.3696216,0.09725 -0.6812263,0.208164 -0.9675883,0.33655 -0.2863619,0.128366 -0.547403,0.273924 -0.8163161,0.437764 -0.352728,0.214911 -0.6802326,0.435273 -0.9832932,0.663101 -0.3030605,0.227848 -0.581307,0.462364 -0.836298,0.705895 -0.254991,0.243522 -0.4864928,0.496671 -0.695012,0.75864 -0.2085095,0.261979 -0.3943772,0.533947 -0.5580029,0.817118 -0.1636257,0.283172 -0.30495067,0.577004 -0.42528056,0.884133 -0.12032987,0.307131 -0.21964514,0.627305 -0.29827703,0.961148 -0.0786221,0.333834 -0.13701881,0.681967 -0.175531,1.045278 -0.0384829,0.363311 -0.0570912,0.741 -0.0570912,1.136543 0,0.395533 0.0185108,0.774654 0.0570912,1.137965 0.0384829,0.36331 0.0969381,0.711434 0.175531,1.045277 0.0786222,0.333842 0.17794716,0.654018 0.29827703,0.961147 0.12032989,0.307131 0.26165486,0.600962 0.42528056,0.884134 0.1636257,0.283172 0.3494934,0.55514 0.5580029,0.817118 0.2085192,0.26197 0.440021,0.513687 0.695012,0.757219 0.254991,0.243531 0.5332375,0.479468 0.836298,0.707307 0.3030606,0.227838 0.6305652,0.448199 0.9832932,0.6631 0.2669841,0.162672 0.52633,0.307179 0.8077525,0.434941 0.2814224,0.127753 0.5857105,0.238089 0.9404747,0.335118 0.3547642,0.09706 0.7602869,0.180516 1.2473155,0.250979 0.4870189,0.07048 1.0557581,0.128745 1.7339545,0.176826 1.3564032,0.09619 3.1540052,0.150854 5.6285862,0.182532 2.474591,0.03174 5.626111,0.03933 9.690194,0.03991 l 17.719213,0.0029 -0.02279,1.642784 c -0.0069,0.451753 -0.284287,2.38203 -0.72499,5.127995 -0.440693,2.745955 -1.044525,6.307597 -1.706831,10.022117 L 37.250924,89.79279 21.963532,90.157853 c -2.165295,0.0517 -4.090368,0.105323 -5.805558,0.168269 -1.715181,0.06298 -3.220284,0.13522 -4.545393,0.225307 -1.32511,0.09015 -2.4700024,0.197709 -3.4650646,0.330835 -0.9950719,0.133145 -1.8409078,0.292771 -2.5659755,0.484862 -0.3625387,0.09599 -0.6941254,0.199947 -1.0004206,0.313721 -0.3062853,0.113763 -0.5873084,0.237291 -0.8448519,0.370767 -0.2575533,0.133477 -0.4929716,0.276913 -0.7092848,0.432079 -0.2163229,0.155176 -0.4125275,0.321684 -0.5951121,0.500545 -0.1825943,0.178852 -0.3502631,0.370155 -0.5066306,0.574687 -0.1563675,0.204532 -0.301911,0.422364 -0.4395534,0.654543 -0.2752944,0.464389 -0.52093259,0.985943 -0.7663662,1.572906 -0.16763955,0.400907 -0.3069089,0.784866 -0.41672659,1.15652 -0.10980797,0.371633 -0.18951153,0.730734 -0.23975371,1.080921 -0.05027141,0.350167 -0.07102298,0.691677 -0.05991651,1.028167 0.01110648,0.33648 0.05290189,0.669059 0.12702299,0.999638 0.0741406,0.33058 0.18072377,0.66004 0.31967161,0.99251 0.13894784,0.33248 0.31110793,0.66748 0.51661668,1.00964 0.20550873,0.34214 0.44403493,0.69136 0.71784853,1.05098 0.2738135,0.35962 0.5823396,0.72886 0.926202,1.11373 l 2.1150039,2.3672 14.1271328,0.36507 14.128558,0.36506 0.21265,2.92051 c 0.02942,0.40157 -0.0039,1.09843 -0.09128,2.01355 -0.0871,0.91511 -0.226514,2.04926 -0.408163,3.32406 -0.18165,1.27479 -0.405056,2.6905 -0.659335,4.17113 -0.254279,1.48062 -0.539863,3.02641 -0.844852,4.559 -0.802189,4.03103 -1.413932,7.18883 -1.850981,9.70412 -0.218535,1.25765 -0.39316,2.35476 -0.526623,3.31979 -0.133453,0.96504 -0.225754,1.79835 -0.278285,2.52835 -0.05251,0.72999 -0.06567,1.35695 -0.0414,1.90944 0.02426,0.55249 0.08573,1.03056 0.182673,1.46311 0.09694,0.43254 0.229913,0.81915 0.395312,1.1893 0.165408,0.37016 0.363912,0.72276 0.59369,1.08806 0.17666,0.28086 0.386456,0.56086 0.622225,0.83566 0.23576,0.27478 0.49721,0.545 0.779217,0.80569 0.281988,0.26071 0.583733,0.51291 0.899089,0.75152 0.315346,0.23863 0.644604,0.46311 0.980428,0.67166 0.335834,0.20855 0.678391,0.39993 1.021826,0.57041 0.343433,0.17049 0.687957,0.32052 1.02611,0.44493 0.338144,0.12442 0.670423,0.22341 0.990426,0.29376 0.319993,0.0704 0.627253,0.11149 0.916205,0.11978 0.137029,0.004 0.344554,-0.0354 0.602254,-0.10981 0.257699,-0.0744 0.565748,-0.18312 0.903376,-0.31942 0.675244,-0.27259 1.468713,-0.65235 2.21918,-1.07381 0.552478,-0.31027 1.013047,-0.60613 1.407141,-0.92263 0.394105,-0.31649 0.722808,-0.65437 1.010407,-1.04813 0.2876,-0.39377 0.534816,-0.84403 0.767799,-1.3861 0.232982,-0.54206 0.451917,-1.17515 0.68217,-1.93655 0.312755,-1.03422 0.640124,-2.26195 0.916207,-3.40676 0.276084,-1.14485 0.500405,-2.20779 0.606531,-2.91053 0.419113,-2.77526 0.956656,-5.97143 1.538441,-9.21213 0.581794,-3.24072 1.208082,-6.52546 1.801032,-9.47739 0.592968,-2.95191 1.152901,-5.5706 1.605528,-7.4795 0.226309,-0.95445 0.426577,-1.73223 0.589403,-2.2845 0.162828,-0.55228 0.287804,-0.87965 0.368199,-0.93548 0.108736,-0.0755 0.681821,-0.14661 1.622637,-0.20962 0.940826,-0.063 2.24988,-0.11747 3.83184,-0.16257 3.163933,-0.0902 7.419174,-0.13968 12.002134,-0.12549 3.136361,0.01 5.752267,0.0317 7.914853,0.0699 2.162587,0.0382 3.871425,0.0936 5.197597,0.16828 1.326171,0.0746 2.268526,0.16944 2.895633,0.28806 0.313563,0.0593 0.549021,0.1236 0.713571,0.19536 0.164542,0.0718 0.258421,0.15012 0.291126,0.23529 0.04647,0.12105 0.05505,0.43874 0.03001,0.9255 -0.02504,0.48676 -0.08291,1.14285 -0.171254,1.94082 -0.176778,1.59594 -0.472902,3.75935 -0.853426,6.2731 -0.380522,2.51373 -0.846059,5.37809 -1.364332,8.37362 -0.518273,2.99553 -1.088298,6.12236 -1.678306,9.16365 -0.197997,1.02064 -0.374472,2.02975 -0.523748,2.9804 -0.149284,0.95066 -0.271349,1.84378 -0.361067,2.6296 -0.08973,0.78581 -0.147638,1.46458 -0.166977,1.99073 -0.01929,0.52616 -5.26e-4,0.89931 0.06138,1.07096 0.237737,0.65949 0.523904,1.27494 0.851983,1.84385 0.328089,0.56892 0.697691,1.09171 1.101743,1.56292 0.404061,0.47121 0.843021,0.89138 1.308683,1.25776 0.465654,0.36639 0.95846,0.67819 1.471365,0.93261 0.512895,0.25443 1.045479,0.45074 1.591246,0.5861 0.545766,0.13535 1.104042,0.21046 1.668309,0.2196 0.564267,0.009 1.134166,-0.047 1.702564,-0.17111 0.568398,-0.1242 1.135842,-0.31717 1.694001,-0.58182 0.571506,-0.27099 1.07119,-0.50519 1.515605,-0.75724 0.444414,-0.25201 0.832975,-0.52233 1.185947,-0.86558 0.176486,-0.17162 0.344895,-0.36102 0.505209,-0.57611 0.160312,-0.2151 0.313786,-0.45494 0.462379,-0.72728 0.297196,-0.54466 0.574935,-1.21719 0.852003,-2.07344 0.277062,-0.85624 0.552278,-1.89631 0.844869,-3.17435 0.292569,-1.27802 0.602432,-2.79466 0.946187,-4.60464 0.6875,-3.61995 1.512655,-8.41464 2.618765,-14.82353 0.51201,-2.96662 1.05496,-5.86554 1.51704,-8.14832 0.23104,-1.14139 0.44264,-2.12961 0.61937,-2.89341 0.17674,-0.76382 0.31934,-1.30448 0.41388,-1.55294 l 0.68645,-1.80678 h 19.47885 c 4.52813,0 8.01913,-0.005 10.74342,-0.0356 2.72427,-0.0304 4.68082,-0.0863 6.13949,-0.18253 0.72933,-0.0481 1.33427,-0.10552 1.84814,-0.17683 0.51385,-0.0714 0.93731,-0.15634 1.30297,-0.25526 0.36564,-0.0989 0.67428,-0.21273 0.95902,-0.34367 0.28473,-0.13094 0.54522,-0.27892 0.81631,-0.44635 0.28765,-0.17764 0.55709,-0.37175 0.80919,-0.58181 0.25209,-0.21009 0.48705,-0.43606 0.70357,-0.67451 0.21652,-0.23846 0.41562,-0.49013 0.59653,-0.75295 0.18092,-0.26282 0.34282,-0.5368 0.48809,-0.81997 0.14528,-0.28315 0.27285,-0.5747 0.38246,-0.87415 0.10961,-0.29945 0.20153,-0.60664 0.27544,-0.91836 0.0739,-0.31172 0.13022,-0.62838 0.16841,-0.948308 0.0382,-0.319961 0.0589,-0.642697 0.0614,-0.966853 0.002,-0.324157 -0.0137,-0.649647 -0.0471,-0.973976 -0.0334,-0.324321 -0.0849,-0.647807 -0.15413,-0.968268 -0.0691,-0.320467 -0.15613,-0.638588 -0.26117,-0.95115 -0.10502,-0.312582 -0.22728,-0.619147 -0.36819,-0.919794 -0.14092,-0.300646 -0.29983,-0.595178 -0.47666,-0.879859 -0.17682,-0.284682 -0.37236,-0.559559 -0.58513,-0.824244 -0.21275,-0.264686 -0.44342,-0.519412 -0.69215,-0.760071 -0.24873,-0.240669 -0.51446,-0.467602 -0.79919,-0.680215 -0.23346,-0.174324 -0.4596,-0.329374 -0.70786,-0.466307 -0.24825,-0.136942 -0.51838,-0.255875 -0.84485,-0.360789 -0.32647,-0.104914 -0.70928,-0.195537 -1.17739,-0.273797 -0.46809,-0.07827 -1.02227,-0.144108 -1.69542,-0.201067 -1.34631,-0.113949 -3.1658,-0.189999 -5.71279,-0.250979 -2.54699,-0.06104 -5.82193,-0.107328 -10.07695,-0.158291 l -18.21442,-0.21819 V 88.41685 c 0,-0.441794 0.1953,-1.886684 0.50949,-3.897334 0.31417,-2.01064 0.74685,-4.58814 1.22162,-7.292702 0.47477,-2.704552 0.99103,-5.536399 1.47279,-8.059899 0.48176,-2.523509 0.92928,-4.738565 1.26443,-6.20607 l 0.79206,-3.468098 h 14.88066 c 2.1877,0 4.13006,-0.0059 5.85693,-0.02852 1.72686,-0.02229 3.23864,-0.06045 4.5668,-0.12121 1.32816,-0.06075 2.47206,-0.144234 3.46364,-0.259536 0.99159,-0.115311 1.83029,-0.261813 2.54742,-0.447771 0.35857,-0.09297 0.68739,-0.195791 0.989,-0.309456 0.30161,-0.113667 0.57674,-0.238674 0.82916,-0.375042 0.25242,-0.136368 0.4826,-0.285265 0.69358,-0.44635 0.21099,-0.161076 0.4021,-0.334116 0.57943,-0.521924 0.17732,-0.187808 0.34093,-0.389507 0.49235,-0.606063 0.15143,-0.216545 0.29056,-0.448589 0.42386,-0.695897 0.26659,-0.494616 0.50571,-1.052998 0.74638,-1.682706 0.26164,-0.684576 0.45731,-1.232482 0.5894,-1.708388 0.1321,-0.475906 0.20032,-0.878945 0.20408,-1.270585 0.004,-0.391639 -0.0564,-0.773222 -0.17982,-1.204999 -0.12338,-0.431768 -0.31008,-0.913855 -0.55943,-1.510164 -0.26209,-0.626807 -0.52355,-1.184001 -0.80918,-1.679854 -0.28563,-0.495862 -0.595,-0.93057 -0.95617,-1.310517 -0.18059,-0.18998 -0.37447,-0.36667 -0.5837,-0.53049 -0.20923,-0.163821 -0.43351,-0.315356 -0.67788,-0.454898 -0.24438,-0.139551 -0.5089,-0.266457 -0.79491,-0.383598 -0.28601,-0.117151 -0.59348,-0.224237 -0.92764,-0.320866 -0.66832,-0.19326 -1.44057,-0.346674 -2.34048,-0.46916 -0.89993,-0.122486 -1.92759,-0.21419 -3.11114,-0.280923 -1.18355,-0.06678 -2.52245,-0.109432 -4.04163,-0.135483 -1.51917,-0.02609 -3.2194,-0.03524 -5.12623,-0.03563 l -13.42214,-0.0029 0.35964,-4.198225 c 0.0991,-1.154514 0.45073,-3.641215 0.93762,-6.718014 0.48689,-3.076797 1.10858,-6.74368 1.74822,-10.257411 0.32816,-1.802593 0.62631,-3.563927 0.88484,-5.213558 0.25852,-1.649628 0.47725,-3.186963 0.64791,-4.539043 0.17065,-1.352082 0.29367,-2.5196501 0.35821,-3.4295963 0.0645,-0.9099452 0.0712,-1.5619856 0.0114,-1.8852074 -0.0561,-0.3034131 -0.12946,-0.6001363 -0.21978,-0.8869891 -0.0903,-0.2868528 -0.19777,-0.5638364 -0.31968,-0.8328001 -0.24382,-0.5379266 -0.54856,-1.0389293 -0.90338,-1.4973286 -0.3548,-0.4583993 -0.75916,-0.8752525 -1.2045,-1.243495 -0.4453,-0.3682433 -0.93174,-0.687982 -1.4471,-0.9554389 -0.51535,-0.26745674 -1.06059,-0.48281857 -1.62549,-0.63886011 -0.56491,-0.15604055 -1.14855,-0.25263427 -1.74252,-0.28663087 -0.59397,-0.03399467 -1.19848,-0.004575 -1.80104,0.0941181 -0.30128,0.0493371 -0.60235,0.11514475 -0.90194,0.19964465 -0.29958,0.0844999 -0.59662,0.18703198 -0.89196,0.30802163 -0.51017,0.20899805 -0.971,0.4282519 -1.39145,0.6816406 -0.42045,0.2533879 -0.80058,0.5408014 -1.15027,0.8869891 -0.34968,0.3461878 -0.66829,0.7518194 -0.96616,1.2392175 -0.29785,0.4873969 -0.57559,1.0570304 -0.84057,1.734049 -0.265,0.6770185 -0.51816,1.4607113 -0.76923,2.3757615 -0.25105,0.9150493 -0.50029,1.9614365 -0.75636,3.1629283 -0.51218,2.402983 -1.05234,5.427107 -1.6983,9.266326 -0.65875,3.9153 -1.35285,7.927284 -1.93946,11.235671 -0.58662,3.308376 -1.065991,5.913163 -1.297256,7.017474 l -0.840588,4.015693 -17.355292,0.195371 c -3.867732,0.04362 -6.890232,0.07058 -9.253495,0.06844 -2.363263,-0.002 -4.067677,-0.03252 -5.301782,-0.101254 -0.617043,-0.03436 -1.116182,-0.07905 -1.521315,-0.134041 -0.405133,-0.055 -0.716056,-0.120053 -0.956169,-0.198215 -0.240125,-0.07818 -0.410288,-0.168396 -0.532322,-0.272377 -0.122025,-0.103989 -0.196039,-0.222668 -0.246895,-0.355084 -0.06274,-0.163392 -0.08641,-0.50587 -0.0756,-0.986809 0.01081,-0.480949 0.05602,-1.099978 0.13129,-1.812474 0.07531,-0.712515 0.180431,-1.51913 0.311118,-2.377192 0.130676,-0.858074 0.286829,-1.767567 0.463811,-2.685209 0.682893,-3.540728 1.275404,-6.69301 1.78106,-9.471672 0.505657,-2.77867 0.924146,-5.182857 1.257292,-7.228534 0.333155,-2.045675 0.581015,-3.733477 0.746394,-5.075231 0.16538,-1.341755 0.248834,-2.3377343 0.251172,-3.0046401 0.002,-0.4662525 -0.02319,-0.9193716 -0.07277,-1.3561505 C 68.287179,7.1028186 68.212697,6.6814104 68.115574,6.2761379 68.018441,5.8708645 67.898481,5.4828065 67.757361,5.1110741 67.616231,4.7393407 67.453648,4.3848432 67.272135,4.0486835 67.090622,3.7125228 66.889624,3.3946503 66.671313,3.096097 66.453012,2.7975436 66.217808,2.5179326 65.966315,2.2590193 65.714822,2.000105 65.448208,1.7618201 65.167126,1.5445794 64.886025,1.3273387 64.590817,1.1305921 64.283723,0.95705584 63.976639,0.78352147 63.657046,0.63280109 63.327554,0.50500569 62.998062,0.37721029 62.658301,0.2727283 62.310015,0.1927065 61.96172,0.1126847 61.604588,0.05750276 61.241095,0.02728625 60.877602,-0.00293123 60.507318,-0.008597 60.132211,0.01302446 Z M 59.832317,59.492542 h 17.402384 c 4.785769,0 9.173294,0.06191 12.386047,0.161134 1.606366,0.04965 2.918079,0.108526 3.840394,0.173975 0.922306,0.06542 1.454111,0.137185 1.498488,0.212486 0.04432,0.07525 0.07054,0.261103 0.07853,0.53048 0.0077,0.269368 -0.002,0.623177 -0.02709,1.03672 -0.05075,0.827097 -0.165301,1.891767 -0.331099,2.996087 -0.409839,2.729551 -1.281775,7.998013 -2.117849,12.892709 -0.836084,4.894686 -1.635886,9.415597 -1.903786,10.653852 L 90.22305,90.157831 H 72.745026 55.267 v -3.315522 c 0,-0.911985 0.11467,-2.333832 0.301132,-3.888767 0.186453,-1.554945 0.443499,-3.242986 0.726403,-4.690212 0.565806,-2.894433 1.59372,-8.302613 2.283403,-12.017123 z"
                inkscape:label="path3815"/>
    </g>
</svg>
